# xmcd
#
# Track frame offsets:
# 150
# 12540
# 25751
# 37532
# 49555
# 61453
# 73328
# 86620
# 99078
# 110017
# 121257
# 133838
# 144940
# 157463
# 167473
# 179981
# 192750
# 205335
# 217618
# 229270
#
# Disc length: 3223 seconds
#
#
# Revision: 0
# Processed by: cddbd v1.5.1PL2 Copyright (c) Steve Scherf et al.
# Submitted via: FreeRIP 2.91 
#
DISCID=180c9514
DTITLE=Hank Williams - Greatest Hits
DYEAR=2005
DGENRE=Country
TTITLE0=Your cheatin' heart
TTITLE1=Jambalaya (on the Bayou)
TTITLE2=Kaw-Liga
TTITLE3=Take these chains from my heart
TTITLE4=You win again
TTITLE5=Settin the woods on fire
TTITLE6=Hey good lookin
TTITLE7=Cold, cold heart
TTITLE8=Moanin' the blues
TTITLE9=Crazy heart
TTITLE10=Half as much
TTITLE11=I'll never get out of this world alive
TTITLE12=I won't be home no more
TTITLE13=Honky Tonk blues
TTITLE14=Lovesick blues
TTITLE15=I'm so lonesome I could cry
TTITLE16=Honky tonkin'
TTITLE17=Lost highway
TTITLE18=My bucket's got a hole in it
TTITLE19=Move it on over
EXTD=
EXTT0=
EXTT1=
EXTT2=
EXTT3=
EXTT4=
EXTT5=
EXTT6=
EXTT7=
EXTT8=
EXTT9=
EXTT10=
EXTT11=
EXTT12=
EXTT13=
EXTT14=
EXTT15=
EXTT16=
EXTT17=
EXTT18=
EXTT19=
PLAYORDER=
